<svg xmlns="http://www.w3.org/2000/svg" xmlns:svg="http://www.w3.org/2000/svg" xmlns:xlink="http://www.w3.org/1999/xlink" id="svg2377" width="500.942" height="546.601" version="1.0"><title id="title1131">SELinux Logo</title><defs id="defs2379"><linearGradient id="linearGradient5289"><stop id="stop5291" offset="0" style="stop-color:#fec9a5;stop-opacity:1"/><stop id="stop5293" offset="1" style="stop-color:#fec9a5;stop-opacity:0"/></linearGradient><linearGradient id="linearGradient5084"><stop id="stop5086" offset="0" style="stop-color:#fff;stop-opacity:1"/><stop id="stop5088" offset="1" style="stop-color:#fff;stop-opacity:0"/></linearGradient><linearGradient id="linearGradient5070"><stop id="stop5072" offset="0" style="stop-color:#fff;stop-opacity:1"/><stop id="stop5074" offset="1" style="stop-color:#fff;stop-opacity:0"/></linearGradient><linearGradient id="linearGradient4948"><stop id="stop4950" offset="0" style="stop-color:#999;stop-opacity:1"/><stop id="stop4952" offset="1" style="stop-color:#999;stop-opacity:0"/></linearGradient><linearGradient id="linearGradient4930"><stop id="stop4932" offset="0" style="stop-color:#b3b3b3;stop-opacity:1"/><stop id="stop4934" offset="1" style="stop-color:#b3b3b3;stop-opacity:0"/></linearGradient><linearGradient id="linearGradient4918"><stop id="stop4920" offset="0" style="stop-color:#666;stop-opacity:1"/><stop id="stop4922" offset="1" style="stop-color:#666;stop-opacity:0"/></linearGradient><linearGradient id="linearGradient4846"><stop id="stop4848" offset="0" style="stop-color:#1a1a1a;stop-opacity:1"/><stop id="stop4850" offset="1" style="stop-color:#1a1a1a;stop-opacity:0"/></linearGradient><linearGradient id="linearGradient4832"><stop id="stop4834" offset="0" style="stop-color:gray;stop-opacity:1"/><stop id="stop4836" offset="1" style="stop-color:gray;stop-opacity:0"/></linearGradient><linearGradient id="linearGradient4624"><stop id="stop4626" offset="0" style="stop-color:#fff;stop-opacity:1"/><stop id="stop4628" offset="1" style="stop-color:#fff;stop-opacity:0"/></linearGradient><linearGradient id="linearGradient4582"><stop id="stop4584" offset="0" style="stop-color:#520;stop-opacity:1"/><stop id="stop4586" offset="1" style="stop-color:#520;stop-opacity:.07843138"/></linearGradient><linearGradient id="linearGradient4570"><stop id="stop4572" offset="0" style="stop-color:#fff;stop-opacity:1"/><stop id="stop4574" offset="1" style="stop-color:#fff;stop-opacity:.37956205"/></linearGradient><linearGradient id="linearGradient4513"><stop id="stop4515" offset="0" style="stop-color:#fca;stop-opacity:1"/><stop id="stop4517" offset="1" style="stop-color:#fca;stop-opacity:0"/></linearGradient><linearGradient id="linearGradient4152"><stop id="stop4154" offset="0" style="stop-color:#3f4239;stop-opacity:1"/><stop id="stop4156" offset="1" style="stop-color:#171815;stop-opacity:1"/></linearGradient><linearGradient id="linearGradient7995"><stop id="stop7997" offset="0" style="stop-color:#f9cd9f;stop-opacity:1"/><stop id="stop7999" offset="1" style="stop-color:#f9cd9f;stop-opacity:0"/></linearGradient><linearGradient id="linearGradient7973"><stop id="stop7975" offset="0" style="stop-color:#f6bb7c;stop-opacity:1"/><stop id="stop7977" offset="1" style="stop-color:#f6bb7c;stop-opacity:0"/></linearGradient><linearGradient id="linearGradient3456"><stop id="stop3458" offset="0" style="stop-color:#000;stop-opacity:1"/><stop id="stop3460" offset="1" style="stop-color:#171815;stop-opacity:0"/></linearGradient><linearGradient id="linearGradient3204"><stop id="stop3206" offset="0" style="stop-color:#daeac6;stop-opacity:1"/><stop style="stop-color:#5d6b4c;stop-opacity:1" id="stop4182" offset="1"/></linearGradient><linearGradient id="linearGradient8232"><stop id="stop8234" offset="0" style="stop-color:#373737;stop-opacity:1"/><stop id="stop8236" offset="1" style="stop-color:#171717;stop-opacity:1"/></linearGradient><linearGradient id="linearGradient48782"><stop id="stop48784" offset="0" style="stop-color:#9fae8d;stop-opacity:1"/><stop id="stop48786" offset="1" style="stop-color:#e9e9e9;stop-opacity:1"/></linearGradient><linearGradient id="linearGradient3255" x1="3343.341" x2="3359.935" y1="502.409" y2="501.925" gradientTransform="matrix(1.055304,0.05731966,-0.05115542,1.182467,2251.536,1235.549)" gradientUnits="userSpaceOnUse" xlink:href="#linearGradient7973"/><linearGradient id="linearGradient3257" x1="3368.67" x2="3372.154" y1="504.722" y2="499.902" gradientTransform="matrix(-1.054961,0.06473881,0.05777657,1.182084,4480.016,1225.353)" gradientUnits="userSpaceOnUse" xlink:href="#linearGradient7973"/><linearGradient id="linearGradient3259" x1="3350.254" x2="3359.737" y1="464.751" y2="461.956" gradientTransform="matrix(0.875918,0,0,0.84508,2877.878,1271.83)" gradientUnits="userSpaceOnUse" xlink:href="#linearGradient7995"/><linearGradient id="linearGradient7995-3"><stop id="stop7997-7" offset="0" style="stop-color:#f9cd9f;stop-opacity:1"/><stop id="stop7999-7" offset="1" style="stop-color:#f9cd9f;stop-opacity:0"/></linearGradient><linearGradient id="linearGradient4467" x1="3343.341" x2="3359.935" y1="502.409" y2="501.925" gradientTransform="matrix(1.055304,0.05731966,-0.05115542,1.182467,2251.536,1235.549)" gradientUnits="userSpaceOnUse" xlink:href="#linearGradient7973"/><linearGradient id="linearGradient4469" x1="3368.67" x2="3372.154" y1="504.722" y2="499.902" gradientTransform="matrix(-1.054961,0.06473881,0.05777657,1.182084,4480.016,1225.353)" gradientUnits="userSpaceOnUse" xlink:href="#linearGradient7973"/><linearGradient id="linearGradient4471" x1="3350.254" x2="3359.737" y1="464.751" y2="461.956" gradientTransform="matrix(0.875918,0,0,0.84508,2877.878,1271.83)" gradientUnits="userSpaceOnUse" xlink:href="#linearGradient7995"/><radialGradient id="radialGradient4475" cx="3357.051" cy="464.751" r="6.797" fx="3355.435" fy="464.511" gradientTransform="matrix(1.3918421,-0.03654131,0.03019805,1.0706618,-1329.4683,89.830895)" gradientUnits="userSpaceOnUse" xlink:href="#linearGradient7995-3"/><radialGradient id="radialGradient7807" cx="72.85" cy="27.484" r="81.722" fx="72.85" fy="27.484" gradientTransform="matrix(0.95816321,0,0,0.81435981,-4.1629132,39.026445)" gradientUnits="userSpaceOnUse" xlink:href="#linearGradient4832"/><radialGradient id="radialGradient7809" cx="74.1" cy="59.84" r="81.722" fx="70.834" fy="48.313" gradientTransform="matrix(0.24051754,0,0,0.20442008,49.014681,75.525115)" gradientUnits="userSpaceOnUse" xlink:href="#linearGradient4846"/><radialGradient id="radialGradient7811" cx="-216.691" cy="-100.527" r="81.722" fx="-288.441" fy="-112.293" gradientTransform="matrix(0.25458746,-0.06821658,0.05797848,0.21637838,49.502421,113.17221)" gradientUnits="userSpaceOnUse" xlink:href="#linearGradient4918"/><radialGradient id="radialGradient7813" cx="-8.143" cy="36.308" r="80.485" fx="-8.143" fy="36.308" gradientTransform="matrix(0.51280782,-0.21698305,0.105828,0.25010916,-11.159447,95.354272)" gradientUnits="userSpaceOnUse" xlink:href="#linearGradient4930"/><linearGradient id="linearGradient7815" x1="3273.064" x2="3358.183" y1="619.613" y2="619.613" gradientTransform="matrix(0.90249818,0,0,0.90249818,1138.2267,1624.463)" gradientUnits="userSpaceOnUse" xlink:href="#linearGradient8232"/><radialGradient id="radialGradient7817" cx="72.077" cy=".464" r="80.485" fx="72.077" fy=".464" gradientTransform="matrix(0.95816321,0,0,0.81484275,-4.1629162,38.974203)" gradientUnits="userSpaceOnUse" xlink:href="#linearGradient4948"/><radialGradient id="radialGradient7819" cx="291.94" cy="66.469" r="81.722" fx="220.19" fy="54.703" gradientTransform="matrix(0.26570365,-0.07119516,0.06051002,0.22582622,56.008553,92.76532)" gradientUnits="userSpaceOnUse" xlink:href="#linearGradient4918"/><radialGradient id="radialGradient7821" cx="221.034" cy="240.878" r="80.485" fx="221.034" fy="240.878" gradientTransform="matrix(0.53519882,-0.2264573,0.11044882,0.26102981,-7.3020245,74.169389)" gradientUnits="userSpaceOnUse" xlink:href="#linearGradient4930"/><radialGradient id="radialGradient7823" cx="120.607" cy="125.491" r="10.243" fx="120.607" fy="125.491" gradientTransform="matrix(1.2386694,-0.0723761,0.11017357,1.8855482,-50.997378,-77.661603)" gradientUnits="userSpaceOnUse" xlink:href="#linearGradient3456"/><linearGradient id="linearGradient7825" x1="-2564.118" x2="-2479.45" y1="-2276.981" y2="-2369.346" gradientTransform="matrix(-0.6962088,0,0,0.6962088,-1818.9342,1755.3699)" gradientUnits="userSpaceOnUse" xlink:href="#linearGradient48782"/><linearGradient id="linearGradient7827" x1="3273.064" x2="3358.183" y1="619.613" y2="619.613" gradientTransform="matrix(0.90249818,0,0,0.90249818,1138.2267,1624.463)" gradientUnits="userSpaceOnUse" xlink:href="#linearGradient8232"/><radialGradient id="radialGradient7829" cx="73.295" cy="107.046" r="30.225" fx="73.295" fy="107.046" gradientTransform="matrix(0.95816321,0,0,0.95578052,-4.1629129,24.581169)" gradientUnits="userSpaceOnUse" xlink:href="#linearGradient4152"/><radialGradient id="radialGradient7831" cx="150.797" cy="120.406" r="31.797" fx="150.797" fy="120.406" gradientTransform="matrix(0.95816321,0,0,0.92661681,-78.85946,30.876722)" gradientUnits="userSpaceOnUse" xlink:href="#linearGradient4570"/><radialGradient id="radialGradient7833" cx="39.047" cy="107.184" r="14.646" fx="37.788" fy="107.564" gradientTransform="matrix(0.54108106,-0.93718014,1.1632438,0.67159888,-125.46717,102.42825)" gradientUnits="userSpaceOnUse" xlink:href="#linearGradient3456"/><radialGradient id="radialGradient7835" cx="3315.624" cy="619.613" r="42.125" fx="3310.507" fy="577.402" gradientTransform="matrix(0.26484006,0,0,0.26484006,-811.87257,-21.331394)" gradientUnits="userSpaceOnUse" xlink:href="#linearGradient3204"/><radialGradient id="radialGradient7837" cx="3304.112" cy="568.448" r="41.221" fx="3304.112" fy="568.448" gradientTransform="matrix(0.39633236,0,0,0.26484006,-1246.3379,-21.331397)" gradientUnits="userSpaceOnUse" xlink:href="#linearGradient5070"/><radialGradient id="radialGradient7839" cx="3310.47" cy="571.169" r="40.559" fx="3310.47" fy="571.169" gradientTransform="matrix(2.3683944,0,0,2.3683944,-7779.3509,-1258.2928)" gradientUnits="userSpaceOnUse" xlink:href="#linearGradient5084"/><radialGradient id="radialGradient7841" cx="72.475" cy="18.929" r="32.295" fx="72.475" fy="18.929" gradientTransform="matrix(1,0,0,0.27513533,0,44.644774)" gradientUnits="userSpaceOnUse" xlink:href="#linearGradient4624"/><radialGradient id="radialGradient7843" cx="72.581" cy="34.291" r="32.295" fx="72.581" fy="34.291" gradientTransform="matrix(0.15235248,-0.00387054,0.00698759,0.27504659,61.677776,44.95207)" gradientUnits="userSpaceOnUse" xlink:href="#linearGradient4624"/><radialGradient id="radialGradient7845" cx="172.266" cy="71.688" r="32.295" fx="172.266" fy="71.688" gradientTransform="matrix(0.29913296,-0.05851557,0.03481443,0.17797226,33.074115,60.924533)" gradientUnits="userSpaceOnUse" xlink:href="#linearGradient4624"/><radialGradient id="radialGradient7847" cx="172.266" cy="71.688" r="32.295" fx="172.266" fy="71.688" gradientTransform="matrix(-0.29913296,-0.05851557,-0.03481443,0.17797226,113.12601,60.799533)" gradientUnits="userSpaceOnUse" xlink:href="#linearGradient4624"/><radialGradient id="radialGradient7849" cx="118.283" cy="51.935" r="1.089" fx="118.283" fy="51.935" gradientTransform="matrix(3.5533667,1.0598062,-1.4559274,4.8814992,-227.59999,-328.36164)" gradientUnits="userSpaceOnUse" xlink:href="#linearGradient4624"/><radialGradient id="radialGradient7851" cx="118.283" cy="51.935" r="1.089" fx="118.283" fy="51.935" gradientTransform="matrix(3.5533667,1.0598062,-1.4559274,4.8814992,-227.59999,-328.36164)" gradientUnits="userSpaceOnUse" xlink:href="#linearGradient4624"/><radialGradient id="radialGradient7853" cx="70.532" cy="69.367" r="17.384" fx="70.532" fy="69.367" gradientTransform="matrix(1.1492209,-0.02755882,0.0161835,0.67486279,-17.258952,48.268642)" gradientUnits="userSpaceOnUse" xlink:href="#linearGradient4582"/><radialGradient id="radialGradient7855" cx="72.2" cy="79.641" r="17.384" fx="72.2" fy="79.641" gradientTransform="matrix(0.70827996,0,0,0.67505681,14.741267,46.322127)" gradientUnits="userSpaceOnUse" xlink:href="#linearGradient4582"/><radialGradient id="radialGradient7857" cx="72.151" cy="79.649" r="12.48" fx="60.901" fy="19.861" gradientTransform="matrix(1,0,0,0.53940373,0,36.686217)" gradientUnits="userSpaceOnUse" xlink:href="#linearGradient4513"/><radialGradient id="radialGradient7859" cx="72.151" cy="79.649" r="12.48" fx="60.901" fy="19.861" gradientTransform="matrix(1,0,0,0.53940373,0,36.686217)" gradientUnits="userSpaceOnUse" xlink:href="#linearGradient4513"/><radialGradient id="radialGradient7861" cx="70.592" cy="45.036" r="17.384" fx="70.592" fy="45.036" gradientTransform="matrix(0.98392042,0,0,0.93776796,2.2681958,11.373174)" gradientUnits="userSpaceOnUse" xlink:href="#linearGradient4582"/><radialGradient id="radialGradient7863" cx="31.655" cy="171.331" r="28.548" fx="31.655" fy="171.331" gradientTransform="matrix(0.95816321,0,0,0.2037292,-4.1629129,153.54593)" gradientUnits="userSpaceOnUse" xlink:href="#linearGradient4582"/><radialGradient id="radialGradient7865" cx="111.655" cy="171.331" r="28.548" fx="111.655" fy="171.331" gradientTransform="matrix(0.95816321,0,0,0.2037292,-4.1629129,153.54593)" gradientUnits="userSpaceOnUse" xlink:href="#linearGradient4582"/><radialGradient id="radialGradient7867" cx="113.224" cy="154.891" r="21.516" fx="113.218" fy="165.909" gradientTransform="matrix(0.99479335,-0.10191269,0.02323928,0.22684398,-3.4059673,143.73845)" gradientUnits="userSpaceOnUse" xlink:href="#linearGradient5289"/><radialGradient id="radialGradient7869" cx="113.224" cy="154.891" r="21.516" fx="113.218" fy="165.909" gradientTransform="matrix(0.99479335,-0.10191269,0.02323928,0.22684398,-3.4059673,143.73845)" gradientUnits="userSpaceOnUse" xlink:href="#linearGradient5289"/><radialGradient id="radialGradient7871" cx="118.178" cy="176.081" r="6.864" fx="118.178" fy="176.081" gradientTransform="matrix(0.98449516,-0.08583441,0.10301722,0.28292258,-93.825553,136.87445)" gradientUnits="userSpaceOnUse" xlink:href="#linearGradient4582"/><radialGradient id="radialGradient7873" cx="118.178" cy="176.081" r="6.864" fx="118.178" fy="176.081" gradientTransform="matrix(0.98449516,-0.08583441,0.10301722,0.28292258,-93.825553,136.87445)" gradientUnits="userSpaceOnUse" xlink:href="#linearGradient4582"/><radialGradient id="radialGradient7875" cx="118.178" cy="176.081" r="6.864" fx="118.178" fy="176.081" gradientTransform="matrix(0.98449516,-0.08583441,0.10301722,0.28292258,-9.770137,137.34932)" gradientUnits="userSpaceOnUse" xlink:href="#linearGradient4582"/><radialGradient id="radialGradient7877" cx="118.178" cy="176.081" r="6.864" fx="118.178" fy="176.081" gradientTransform="matrix(0.98449516,-0.08583441,0.10301722,0.28292258,-93.825553,136.87445)" gradientUnits="userSpaceOnUse" xlink:href="#linearGradient4582"/><radialGradient id="radialGradient7879" cx="118.178" cy="176.081" r="6.864" fx="118.178" fy="176.081" gradientTransform="matrix(0.98449516,-0.08583441,0.10301722,0.28292258,-93.825553,136.87445)" gradientUnits="userSpaceOnUse" xlink:href="#linearGradient4582"/><radialGradient id="radialGradient7881" cx="118.178" cy="176.081" r="6.864" fx="118.178" fy="176.081" gradientTransform="matrix(0.98449516,-0.08583441,0.10301722,0.28292258,-9.770137,137.34932)" gradientUnits="userSpaceOnUse" xlink:href="#linearGradient4582"/><filter id="filter1007" width="1.022" height="1.026" x="-.011" y="-.013" style="color-interpolation-filters:sRGB"><feGaussianBlur id="feGaussianBlur1009" stdDeviation=".764"/></filter><filter id="filter1011" width="1.022" height="1.026" x="-.011" y="-.013" style="color-interpolation-filters:sRGB"><feGaussianBlur id="feGaussianBlur1013" stdDeviation=".735"/></filter><filter id="filter1015" width="1.022" height="1.026" x="-.011" y="-.013" style="color-interpolation-filters:sRGB"><feGaussianBlur id="feGaussianBlur1017" stdDeviation=".704"/></filter><filter id="filter1019" width="1.022" height="1.026" x="-.011" y="-.013" style="color-interpolation-filters:sRGB"><feGaussianBlur id="feGaussianBlur1021" stdDeviation=".704"/></filter><filter id="filter1023" width="1.067" height="1.078" x="-.033" y="-.039" style="color-interpolation-filters:sRGB"><feGaussianBlur id="feGaussianBlur1025" stdDeviation="2.173"/></filter></defs><metadata id="metadata2382"/><g id="layer1" transform="translate(186.62646,112.82068)"><path id="path15999" d="m 3351.5938,498.53125 c -4.1606,-1.17004 -11.0741,3.74365 -11.1563,5.8125 -0.067,1.69723 5.7429,-1.61246 10.4063,-0.71875 5.8274,1.63136 9.4518,2.94547 9.0624,0.59375 -0.3802,-2.29855 -4.4268,-4.59477 -8.3124,-5.6875 z" transform="matrix(0.79017,-0.03830319,0.034184,0.705194,684.5232,277.5453)" style="color:#000;display:inline;overflow:visible;visibility:visible;fill:url(#linearGradient3255);fill-opacity:1;fill-rule:nonzero;stroke:none;stroke-width:1.0951;marker:none"/><path style="color:#000;display:inline;overflow:visible;visibility:visible;fill:url(#linearGradient3257);fill-opacity:1;fill-rule:nonzero;stroke:none;stroke-width:1.0951;marker:none" id="path16001" d="m 3351.5938,498.53125 c -4.1606,-1.17004 -11.0741,3.74365 -11.1563,5.8125 -0.067,1.69723 5.7429,-1.61246 10.4063,-0.71875 5.8274,1.63136 9.4518,2.94547 9.0624,0.59375 -0.3802,-2.29855 -4.4268,-4.59477 -8.3124,-5.6875 z" transform="matrix(-0.789915,0.04326094,0.03860855,0.704965,5997.342,4.964376)"/><path id="path16003" d="m 3353.9688,460.28125 c -2.5452,0.19012 -4.0344,1.07958 -3.6563,3.21875 0.4928,2.78778 3.6221,5.56332 6.4375,5.75 3.0147,0.19989 7.2414,-3.67281 7.0938,-6.3125 -0.1213,-2.16547 -3.6624,-2.9289 -7,-2.625 -1.0555,-0.0676 -2.0267,-0.0946 -2.875,-0.0312 z" transform="matrix(0.794354,0,0,0.823342,690.4498,77.58585)" style="color:#000;display:inline;overflow:visible;visibility:visible;fill:url(#linearGradient3259);fill-opacity:1;fill-rule:nonzero;stroke:none;stroke-width:1.3155;marker:none"/><path style="color:#000;display:inline;overflow:visible;visibility:visible;fill:url(#linearGradient4467);fill-opacity:1;fill-rule:nonzero;stroke:none;stroke-width:1.0951;marker:none" id="path3311" d="m 3351.5938,498.53125 c -4.1606,-1.17004 -11.0741,3.74365 -11.1563,5.8125 -0.067,1.69723 5.7429,-1.61246 10.4063,-0.71875 5.8274,1.63136 9.4518,2.94547 9.0624,0.59375 -0.3802,-2.29855 -4.4268,-4.59477 -8.3124,-5.6875 z" transform="matrix(0.79017,-0.03830319,0.034184,0.705194,684.5232,277.5453)"/><path id="path3313" d="m 3351.5938,498.53125 c -4.1606,-1.17004 -11.0741,3.74365 -11.1563,5.8125 -0.067,1.69723 5.7429,-1.61246 10.4063,-0.71875 5.8274,1.63136 9.4518,2.94547 9.0624,0.59375 -0.3802,-2.29855 -4.4268,-4.59477 -8.3124,-5.6875 z" transform="matrix(-0.789915,0.04326094,0.03860855,0.704965,5997.342,4.964376)" style="color:#000;display:inline;overflow:visible;visibility:visible;fill:url(#linearGradient4469);fill-opacity:1;fill-rule:nonzero;stroke:none;stroke-width:1.0951;marker:none"/><path style="color:#000;display:inline;overflow:visible;visibility:visible;fill:url(#linearGradient4471);fill-opacity:1;fill-rule:nonzero;stroke:none;stroke-width:1.3155;marker:none" id="path3315" d="m 3353.9688,460.28125 c -2.5452,0.19012 -4.0344,1.07958 -3.6563,3.21875 0.4928,2.78778 3.6221,5.56332 6.4375,5.75 3.0147,0.19989 7.2414,-3.67281 7.0938,-6.3125 -0.1213,-2.16547 -3.6624,-2.9289 -7,-2.625 -1.0555,-0.0676 -2.0267,-0.0946 -2.875,-0.0312 z" transform="matrix(0.794354,0,0,0.823342,690.4498,77.58585)"/><path id="path4190" d="m 3353.9688,460.28125 c -2.5452,0.19012 -4.0344,1.07958 -3.6563,3.21875 0.4928,2.78778 3.6221,5.56332 6.4375,5.75 3.0147,0.19989 7.2414,-3.67281 7.0938,-6.3125 -0.1213,-2.16547 -3.6624,-2.9289 -7,-2.625 -1.0555,-0.0676 -2.0267,-0.0946 -2.875,-0.0312 z" transform="matrix(0.79435401,0,0,0.82334199,817.12119,71.362171)" style="color:#000;display:inline;overflow:visible;visibility:visible;fill:url(#radialGradient4475);fill-opacity:1;fill-rule:nonzero;stroke:none;stroke-width:1.3155;marker:none"/><g id="g1129" transform="matrix(2.6652981,0,0,2.6652981,-106.31987,-225.6144)"><g id="g1075" transform="translate(1.5007702)"><path id="path5116" d="m 64.116456,55.943005 c -24.757519,0.943448 -31.143591,23.138016 -26.589029,42.48855 -0.412863,0.134085 -1.981827,0.670446 -4.611161,1.557015 -0.116416,0.03996 -0.213363,0.0801 -0.329368,0.11977 -14.875465,5.02547 -56.064678,19.55281 -49.315463,24.37328 4.105325,2.93233 16.77934058,5.36714 29.313806,6.49754 2.264082,0.20414 4.564067,0.39773 6.767028,0.50903 0.02079,1.5564 -0.130435,3.1916 -0.389254,4.94053 -0.861705,5.80441 -0.59296,12.29199 1.047991,18.65424 -0.0011,0.0116 0.0011,0.0182 0,0.0299 -0.453892,4.93256 -2.781347,20.79867 3.443399,31.46967 7.114007,12.19543 20.331025,0.32937 20.331025,0.32937 l 1.49713,-2.15586 c 4.915933,2.09852 10.585069,3.52859 17.067283,4.10213 7.635248,0.67557 14.736093,-0.59364 21.079593,-3.20386 1.241578,1.36758 11.880154,12.51291 19.971694,1.97622 8.28182,-10.78446 7.06472,-29.05778 7.45571,-31.85893 0.65952,-2.19687 1.13212,-4.42348 1.37736,-6.61732 10.4897,4.367 21.00726,7.62357 25.54104,7.0964 8.80915,-1.02426 -26.8265,-49.76997 -42.69813,-60.094801 3.42427,-17.922067 -4.372829,-40.47464 -29.733007,-40.212912 -0.40309,0.0041 -0.833909,-0.01456 -1.227647,0 z" style="fill:#4a4a44;fill-opacity:1;stroke:#000;stroke-width:.479082;stroke-linecap:butt;stroke-linejoin:miter;stroke-miterlimit:4;stroke-dasharray:none;stroke-opacity:1"/><path style="fill:#4a4a44;fill-opacity:1;stroke:#000;stroke-width:0;stroke-linecap:butt;stroke-linejoin:miter;stroke-miterlimit:4;stroke-dasharray:none;stroke-opacity:1;filter:url(#filter1007)" id="path5426" d="m 71.260687,33.037287 c -25.83852,0.984642 -32.50343,24.148304 -27.75,44.34375 -0.43089,0.13994 -2.06836,0.69972 -4.8125,1.625 -0.1215,0.0417 -0.22268,0.0836 -0.34375,0.125 -15.52498,5.244903 -58.51266,20.406553 -51.46875,25.437503 4.284578,3.06037 17.511986,5.60149 30.59375,6.78125 2.36294,0.21305 4.76335,0.41509 7.0625,0.53125 0.0217,1.62436 -0.13613,3.33096 -0.40625,5.15625 -0.89933,6.05785 -0.61885,12.8287 1.09375,19.46875 -0.0011,0.0121 0.0011,0.019 0,0.0312 -0.47371,5.14793 -2.90279,21.70681 3.59375,32.84375 7.42463,12.72792 21.21875,0.34375 21.21875,0.34375 l 1.5625,-2.25 c 5.13058,2.19015 11.04725,3.68266 17.8125,4.28125 7.96863,0.70506 15.379523,-0.61956 22.000003,-3.34375 1.29579,1.42729 12.39888,13.05926 20.84375,2.0625 8.64343,-11.25534 7.37319,-30.32654 7.78125,-33.25 0.68832,-2.29279 1.18155,-4.61662 1.4375,-6.90625 10.94772,4.55767 21.92451,7.95644 26.65625,7.40625 9.19379,-1.06898 -27.99784,-51.9431 -44.5625,-62.718753 3.5738,-18.704608 -4.56376,-42.241906 -31.031253,-41.96875 -0.42069,0.0043 -0.87032,-0.01519 -1.28125,0 z" transform="matrix(0.95816321,0,0,0.95816321,-4.1629162,24.287892)"/><path style="fill:url(#radialGradient7807);fill-opacity:1;fill-rule:evenodd;stroke:none" id="path4822" d="m 64.101783,55.94524 c -24.757516,0.943448 -31.124845,23.136091 -26.570278,42.486626 -0.412861,0.134086 -1.983229,0.672572 -4.612567,1.559142 -0.116416,0.03992 -0.208717,0.09022 -0.324717,0.129932 -14.875465,5.02546 -56.057192,19.54112 -49.307976,24.36159 4.105324,2.93233 16.76451978,5.36603 29.298984,6.49643 2.264083,0.20414 4.553318,0.40841 6.756283,0.51971 0.02079,1.5564 -0.130968,3.18837 -0.389785,4.93729 -3.044693,20.50893 8.139969,49.30671 43.396125,52.42615 27.008296,2.38967 47.625328,-19.41172 49.892528,-39.69316 10.4897,4.367 20.99728,7.60828 25.53106,7.08111 8.80915,-1.02426 -26.80997,-49.76711 -42.681601,-60.091943 3.424281,-17.92207 -4.39346,-40.474605 -29.753632,-40.212877 -0.40309,0.0041 -0.840689,-0.01455 -1.234424,0 z"/><path id="path4844" d="m 64.101793,55.94524 c -24.757524,0.943448 -31.124854,23.136091 -26.570284,42.486626 -0.41286,0.134087 -1.98323,0.672572 -4.61257,1.559143 -0.11641,0.03992 -0.20872,0.09022 -0.32472,0.129931 -14.875462,5.02546 -56.057198,19.54112 -49.307977,24.36159 4.105321,2.93233 16.76452178,5.36603 29.298984,6.49643 2.26409,0.20414 4.553321,0.40841 6.756291,0.51971 0.0208,1.5564 -0.13097,3.18837 -0.38979,4.93729 -3.044691,20.50893 8.139971,49.30671 43.396136,52.42615 27.008293,2.38967 47.625327,-19.41172 49.892527,-39.69316 10.4897,4.367 20.99728,7.60828 25.53106,7.08111 C 146.5806,155.2258 110.96148,106.48295 95.089857,96.158117 98.51413,78.236047 90.696396,55.683512 65.336213,55.94524 c -0.40309,0.0041 -0.84069,-0.01455 -1.23442,0 z" style="mix-blend-mode:normal;fill:url(#radialGradient7809);fill-opacity:1;fill-rule:evenodd;stroke:none;stroke-width:.958163;filter:url(#filter1023)"/><path id="path4908" d="M 63.357653,57.913432 C 50.815071,57.888442 40.04867,68.157728 38.804719,80.520095 c -1.01001,6.395295 -0.32032,12.928881 1.167761,19.193207 -18.207543,6.600468 -37.3872851,11.814148 -53.926628,22.187468 -3.16262,1.88978 2.930291,2.63733 4.1021407,3.29369 10.12571109,2.88522 20.7919433,3.80257 31.3499043,4.52133 -0.61918,9.97564 -2.00547,20.41155 2.18581,29.76294 9.537082,27.05064 47.389147,36.14401 69.338505,18.65282 9.899338,-7.45074 16.973238,-19.07361 17.884278,-31.67785 8.59528,3.29986 17.32525,7.5254 26.55908,7.87491 -3.55971,-12.34747 -12.54408,-22.44284 -20.02884,-32.66839 -7.33424,-8.90518 -14.58168,-18.04572 -24.196354,-24.611809 3.454542,-14.445417 -1.86454,-33.21123 -17.546362,-37.817504 -3.9861,-1.219919 -8.166971,-1.540032 -12.336361,-1.317475 z" style="opacity:.7;mix-blend-mode:normal;fill:url(#radialGradient7811);fill-opacity:1;fill-rule:evenodd;stroke:url(#radialGradient7813);stroke-width:1.91633;stroke-linecap:butt;stroke-linejoin:miter;stroke-miterlimit:4;stroke-dasharray:none;stroke-opacity:1;filter:url(#filter1019)"/><path style="color:#000;display:inline;overflow:visible;visibility:visible;fill:none;stroke:url(#linearGradient7815);stroke-width:.958164;stroke-linecap:round;stroke-linejoin:round;stroke-miterlimit:4;stroke-dasharray:none;stroke-dashoffset:0;stroke-opacity:1;marker:none" id="path4319" d="M 53.293087,104.65056 A 39.740711,39.740711 0 0 1 103.80019,129.27429 39.740711,39.740711 0 0 1 79.198077,179.79194 39.740711,39.740711 0 0 1 28.669909,155.21145 39.740711,39.740711 0 0 1 53.228768,104.67276"/><path style="mix-blend-mode:normal;fill:none;stroke:url(#radialGradient7817);stroke-width:1.91633;stroke-linecap:butt;stroke-linejoin:miter;stroke-miterlimit:4;stroke-dasharray:none;stroke-opacity:1;filter:url(#filter1015)" id="path4946" d="M 63.118113,57.913432 C 50.575531,57.888442 39.80912,68.157728 38.565179,80.520095 c -1.01001,6.395295 -0.32032,12.928881 1.167761,19.193207 -18.207543,6.600468 -37.3872851,11.814148 -53.926628,22.187468 -3.16263,1.88978 2.930291,2.63733 4.102141,3.29369 10.12570078,2.88522 20.791943,3.80257 31.349904,4.52133 -0.61918,9.97564 -2.00547,20.41155 2.18581,29.76294 9.537082,27.05064 47.389147,36.14401 69.3385,18.65282 9.899343,-7.45074 16.973243,-19.07361 17.884283,-31.67785 8.59528,3.29986 17.32525,7.5254 26.55908,7.87491 -3.55971,-12.34747 -12.54408,-22.44284 -20.02883,-32.66839 -7.33425,-8.90518 -14.58169,-18.04572 -24.196363,-24.611809 3.45454,-14.445417 -1.864541,-33.21123 -17.546363,-37.817504 -3.9861,-1.219919 -8.166971,-1.540032 -12.336361,-1.317475 z"/><path style="opacity:.7;fill:url(#radialGradient7819);fill-opacity:1;fill-rule:evenodd;stroke:url(#radialGradient7821);stroke-width:2;stroke-linecap:butt;stroke-linejoin:miter;stroke-miterlimit:4;stroke-dasharray:none;stroke-opacity:1;filter:url(#filter1011)" id="path5038" d="M 70.46875,35.09375 C 57.378508,35.06766 46.142008,45.785348 44.84375,58.6875 43.789638,65.362036 44.509438,72.180901 46.0625,78.71875 27.059955,85.60742 7.0427549,91.04874 -10.21875,101.875 c -3.300717,1.9723 3.058232,2.75249 4.28125,3.4375 10.5678326,3.0112 21.699789,3.96861 32.71875,4.71875 -0.646212,10.41121 -2.093033,21.30279 2.28125,31.0625 9.953505,28.23176 49.458316,37.72218 72.36606,19.46727 10.3316,-7.77607 17.71437,-19.90644 18.66519,-33.06102 8.97058,3.44394 18.08173,7.85398 27.71875,8.21875 -3.71514,-12.8866 -13.0918,-23.42277 -20.90337,-34.0948 -7.65449,-9.29402 -15.21838,-18.83367 -25.25288,-25.68645 3.60538,-15.076155 -1.945954,-34.661349 -18.3125,-39.46875 -4.160138,-1.273184 -8.52356,-1.607275 -12.875,-1.375 z" transform="matrix(0.95816321,0,0,0.95816321,-4.1629156,24.287892)"/><path style="fill:url(#radialGradient7823);fill-opacity:1;fill-rule:evenodd;stroke:none" id="path15995" d="m 111.46234,148.5911 c 2.98045,-7.17577 -3.82435,-21.6723 -2.95818,-22.72545 2.79272,-3.39628 21.22606,28.46685 21.22606,28.46685 0,0 -14.89317,-3.35758 -18.26788,-5.7414 z"/><path style="color:#000;display:inline;overflow:visible;visibility:visible;fill:url(#linearGradient7825);fill-opacity:1;fill-rule:nonzero;stroke:none;stroke-width:1.91633;marker:none" id="path15959" d="m -79.162961,104.65056 a 39.740711,39.740711 0 0 1 50.507107,24.62373 39.740711,39.740711 0 0 1 -24.602116,50.51765 39.740711,39.740711 0 0 1 -50.52817,-24.58049 39.740711,39.740711 0 0 1 24.55886,-50.53869" transform="scale(-1,1)"/><path id="path4150" d="m 94.53814,141.99804 c -0.0912,8.11446 -3.357396,16.28742 -9.401979,21.76827 -13.011981,13.08646 -37.253586,7.64864 -45.183383,-8.2941 -2.168985,-3.66464 -3.191997,-7.66646 -3.293686,-11.70756 -0.04935,4.36495 0.95273,8.71052 3.293686,12.66572 7.929797,15.94274 32.171402,21.38056 45.183383,8.2941 6.281623,-5.69579 9.566779,-14.30454 9.401979,-22.72643 z" style="color:#000;display:inline;overflow:visible;visibility:visible;fill:none;stroke:#fff;stroke-width:.958163;stroke-miterlimit:4;stroke-dasharray:none;marker:none"/><path id="path15961" d="M 53.293087,104.65056 A 39.740711,39.740711 0 0 1 103.80019,129.27429 39.740711,39.740711 0 0 1 79.198077,179.79194 39.740711,39.740711 0 0 1 28.669909,155.21145 39.740711,39.740711 0 0 1 53.228768,104.67276" style="color:#000;display:inline;overflow:visible;visibility:visible;fill:none;stroke:url(#linearGradient7827);stroke-width:.958164;stroke-linecap:round;stroke-linejoin:round;stroke-miterlimit:4;stroke-dasharray:none;stroke-dashoffset:0;stroke-opacity:1;marker:none"/><path id="path15963" d="m 64.895792,113.36599 c -20.043085,-0.49206 -35.260105,24.69547 -24.95168,42.11225 7.929797,15.94273 32.18423,21.38831 45.196207,8.30185 12.089171,-10.9617 13.073716,-32.76791 -0.254661,-43.10941 -5.460116,-4.80983 -12.701188,-7.65855 -19.989866,-7.30469 z" style="color:#000;display:inline;overflow:visible;visibility:visible;fill:url(#radialGradient7829);fill-opacity:1;fill-rule:nonzero;stroke:none;stroke-width:2;marker:none"/><path style="color:#000;display:inline;overflow:visible;visibility:visible;fill:none;stroke:none;stroke-width:2;marker:none" id="path15967" d="m 65.374874,113.36599 c -20.043085,-0.49206 -35.260105,24.69547 -24.95168,42.11225 7.929797,15.94273 32.184229,21.38831 45.196206,8.30185 12.08917,-10.9617 13.07371,-32.76791 -0.25466,-43.10941 -5.460116,-4.80983 -12.701188,-7.65855 -19.989866,-7.30469 z"/><path id="path15969" d="m 66.212438,113.46274 v 10.95899 z m 14.881473,3.59311 -3.114031,6.04841 z m -30.152199,0.26949 3.143973,6.0484 z m 41.11119,11.19853 -6.287946,2.54512 z m -51.860583,1.34741 6.287946,2.54513 z m 55.423753,12.27647 -10.929049,0.0898 z m -49.016037,0.6288 -10.958992,0.26948 z m 38.11693,10.24036 7.096397,2.90444 z m -37.697733,0.56891 -6.287946,2.57507 z m 20.001657,7.27606 0.179655,10.56973 z m -11.318303,0.71862 -3.143973,6.01846 z m 22.217409,0 3.114031,6.01846 z" style="fill:none;stroke:url(#radialGradient7831);stroke-width:1.43724;stroke-linecap:butt;stroke-linejoin:miter;stroke-miterlimit:4;stroke-dasharray:none;stroke-opacity:1"/><path id="path16005" d="m 20.391958,131.34047 c 0.59684,-5.73639 9.998882,-13.909 9.662732,-15.23043 -1.083707,-4.2614 -28.058116,13.06424 -28.058116,13.06424 0,0 14.32727,2.88904 18.395384,2.16619 z" style="fill:url(#radialGradient7833);fill-opacity:1;fill-rule:evenodd;stroke:none"/><path style="color:#000;display:inline;overflow:visible;visibility:visible;fill:#000;fill-opacity:1;stroke:none;stroke-width:.5;marker:none" id="path4178" d="m 94.53814,143.3148 c -0.0912,-8.11446 -3.357396,-16.28742 -9.401979,-21.76827 -13.011981,-13.08646 -37.253586,-7.64864 -45.183383,8.2941 -2.168985,3.66464 -3.191997,7.66646 -3.293686,11.70755 -0.04935,-4.36494 0.95273,-8.71051 3.293686,-12.66572 7.929797,-15.94273 32.171402,-21.38056 45.183383,-8.2941 6.281623,5.69579 9.566779,14.30455 9.401979,22.72644 z"/><path id="path15965" d="m 62.762729,132.67402 a 10.674402,10.674402 0 0 1 13.566269,6.61397 10.674402,10.674402 0 0 1 -6.608158,13.5691 10.674402,10.674402 0 0 1 -13.571926,-6.60235 10.674402,10.674402 0 0 1 6.596539,-13.57475" style="color:#000;display:inline;overflow:visible;visibility:visible;fill:url(#radialGradient7835);fill-opacity:1;fill-rule:nonzero;stroke:#4a553e;stroke-width:.958162;stroke-linecap:round;stroke-linejoin:round;stroke-miterlimit:4;stroke-dasharray:none;stroke-dashoffset:0;stroke-opacity:1;marker:none"/><path style="color:#000;display:inline;overflow:visible;visibility:visible;fill:none;stroke:url(#radialGradient7837);stroke-width:.479082;stroke-linecap:round;stroke-linejoin:round;stroke-miterlimit:4;stroke-dasharray:none;stroke-dashoffset:0;stroke-opacity:1;marker:none" id="path5068" d="m 62.762729,132.67402 a 10.674402,10.674402 0 0 1 13.566269,6.61397 10.674402,10.674402 0 0 1 -6.608158,13.5691 10.674402,10.674402 0 0 1 -13.571926,-6.60235 10.674402,10.674402 0 0 1 6.596539,-13.57475"/><path style="color:#000;display:inline;overflow:visible;visibility:visible;fill:none;stroke:url(#radialGradient7839);stroke-width:.479081;stroke-linecap:round;stroke-linejoin:round;stroke-miterlimit:4;stroke-dasharray:none;stroke-dashoffset:0;stroke-opacity:1;marker:none" id="path5082" d="M 53.293087,104.65056 A 39.740711,39.740711 0 0 1 103.80019,129.27429 39.740711,39.740711 0 0 1 79.198077,179.79194 39.740711,39.740711 0 0 1 28.669909,155.21145 39.740711,39.740711 0 0 1 53.228768,104.67276"/><g id="g4811" transform="matrix(0.95816321,0,0,0.95816321,-4.1629129,24.287892)"><path style="fill:#0c0c0c;fill-opacity:1;fill-rule:evenodd;stroke:#000;stroke-width:2;stroke-linecap:round;stroke-linejoin:round;stroke-miterlimit:4;stroke-dasharray:none;stroke-opacity:1" id="path4784" d="m 103.61914,53.207031 c -0.14868,0.08227 -0.45658,0.262882 -0.9375,0.546875 -0.53792,0.317654 -1.21437,0.719882 -1.89258,1.121094 -0.6782,0.401212 -1.356505,0.800349 -1.896482,1.113281 -0.539976,0.312933 -0.918964,0.529801 -1.078125,0.597657 a 0.16199209,0.16199209 0 0 1 -0.210937,-0.07813 c -0.322332,-0.672878 -0.672713,-1.169294 -1.142578,-1.517578 -0.469866,-0.348283 -1.065547,-0.556571 -1.90625,-0.628906 -1.681407,-0.14467 -4.318225,0.270204 -8.646485,1.171875 -8.364983,1.742612 -10.377375,4.379769 -10.464844,4.5 A 0.16199209,0.16199209 0 0 1 75.3125,60.099609 H 74.25 73.125 71.9375 70.90625 a 0.16199209,0.16199209 0 0 1 -0.130859,-0.06641 c -0.08747,-0.120237 -2.099861,-2.757388 -10.464844,-4.5 -4.328222,-0.901663 -6.972691,-1.316578 -8.662109,-1.171875 -0.84471,0.07235 -1.4452,0.280519 -1.917969,0.628906 -0.472769,0.348387 -0.824261,0.844925 -1.146485,1.517578 a 0.16199209,0.16199209 0 0 1 -0.210937,0.07813 c -0.159161,-0.06786 -0.538148,-0.284724 -1.078125,-0.597657 -0.539977,-0.312932 -1.218278,-0.712069 -1.896484,-1.113281 -0.678207,-0.401212 -1.35466,-0.80344 -1.892579,-1.121094 -0.466964,-0.275753 -0.753061,-0.443672 -0.910156,-0.53125 -0.270889,0.971264 -0.905094,3.032403 -1.107422,4.31836 0.705765,0.831499 1.954578,1.447058 3.25586,2.041015 1.328206,0.606246 2.701201,1.192339 3.58789,2.050781 0.0025,0.0021 0.0043,0.0043 0.0059,0.0059 0.0082,0.0085 0.01313,0.01711 0.01758,0.02344 0.0089,0.01266 0.01381,0.02157 0.01758,0.0293 0.0049,0.01015 0.0073,0.01502 0.0098,0.02148 0.05011,0.03538 0.118003,0.07227 0.183594,0.158203 a 0.16199209,0.16199209 0 0 1 0.002,0.0039 c 0.214002,0.298844 0.281193,0.660151 0.398438,1.060547 0.117245,0.400396 0.277754,0.845933 0.646484,1.335937 0.737461,0.980009 2.329508,2.146398 6.121094,3.292969 4.065739,1.229547 6.461215,1.779429 8.058594,1.953125 1.597378,0.173696 2.388278,-0.02065 3.316406,-0.296875 0.870018,-0.258865 1.556078,-1.052849 2.015625,-1.794922 0.459547,-0.742073 0.691406,-1.416015 0.691406,-1.416015 l 0.136719,0.214843 c 0,0 -0.101006,-0.412373 -0.002,-0.738281 0.09905,-0.325908 0.254499,-0.762629 0.488281,-1.210937 0.467563,-0.896617 1.258292,-1.855404 2.511719,-1.998047 a 0.16199209,0.16199209 0 0 1 0.01953,-0.002 c -0.0014,1.9e-5 0.002,1.55e-4 0.0059,0 0.0014,3.3e-5 6.01e-4,-2.23e-4 0.0039,0 0.0016,-6.6e-5 0.0039,5.9e-5 0.0059,0 0.002,-6e-5 0.0033,3e-5 0.0059,0 0.01304,-7.42e-4 0.01328,-5.19e-4 0.01367,0 2.83e-4,3.7e-4 0.01766,-7.51e-4 0.0098,0 a 0.16199209,0.16199209 0 0 1 0.03125,0.002 c -4.4e-5,-5e-5 -0.002,-0.002 -0.002,-0.002 0.0057,-2.6e-5 0.0126,3.5e-5 0.01563,0 a 0.16199209,0.16199209 0 0 1 0.0098,0 c 0.0226,0.0011 0.07861,-0.0027 0.138672,0 0.011,4.95e-4 0.01362,-0.0011 0.02539,0 l -0.002,0.002 a 0.16199209,0.16199209 0 0 1 0.0078,-0.002 0.16199209,0.16199209 0 0 1 0.02734,0.002 c 1.253427,0.142643 2.044156,1.10143 2.511719,1.998047 0.233782,0.448308 0.389228,0.885029 0.488281,1.210937 0.09513,0.313013 0.131553,0.506927 0.134766,0.523438 0,0 -2e-6,0.0019 0,0.002 9.02e-4,0.0026 0.232757,0.673439 0.691406,1.414062 0.459547,0.742073 1.145607,1.536057 2.015625,1.794922 0.928424,0.276294 1.711292,0.470554 3.300781,0.296875 1.589489,-0.173679 3.977174,-0.723562 8.042969,-1.953125 4.113002,-1.243765 5.629861,-2.503333 6.28125,-3.529297 0.325694,-0.512982 0.439354,-0.972456 0.552734,-1.380859 0.113381,-0.408403 0.231456,-0.786251 0.587891,-1.037109 0.887637,-0.849672 2.25862,-1.432853 3.58594,-2.035157 1.30894,-0.593967 2.56379,-1.209917 3.26953,-2.041015 -0.20312,-1.290946 -0.84244,-3.368074 -1.11133,-4.333985 z m -30.429687,9.109375 -0.0293,0.02539 a 0.16199209,0.16199209 0 0 1 0.0332,0.0957 c 0.0067,-2e-6 0.02539,0 0.02539,0 3.9e-5,-2.3e-5 -0.01864,-0.0778 -0.0293,-0.121094 z m 0.0039,0.121094 c 0,0 -0.03182,-0.03518 -0.0625,-0.06836 l -0.01172,0.01172 a 0.16199209,0.16199209 0 0 1 0.01172,0.05664 c 0.03101,-1e-5 0.046,5e-6 0.0625,0 z"/><path style="fill:none;stroke:url(#radialGradient7841);stroke-width:1;stroke-linecap:butt;stroke-linejoin:miter;stroke-miterlimit:4;stroke-dasharray:none;stroke-opacity:1" id="path4622" d="m 42.494377,52.967755 c -0.240179,0.889907 -0.986093,3.240588 -1.189587,4.614381 1.465873,1.804604 5.216672,2.531196 6.921571,4.181783 0.01154,0.0069 0.02653,0.02907 0.03576,0.03599 0.06229,0.05041 0.134394,0.120101 0.180307,0.180249 0.742339,1.036644 -0.371227,3.428462 7.246078,5.731926 8.139537,2.46153 9.598027,2.213553 11.463737,1.658293 1.866171,-0.55526 2.812003,-3.316574 2.812003,-3.316586 -1.15e-4,-1.1e-5 0.632632,-3.336474 2.99208,-3.604985 0,0.0012 0.0323,-0.0012 0.03576,0 0.01154,-9.8e-4 0.02653,8.77e-4 0.03576,0 0,2.66e-4 0.02769,9.3e-5 0.03576,0 0.04845,0.0023 0.0969,-0.0046 0.144199,0 0,-0.0012 0.03115,0.0012 0.03576,0 2.359449,0.268511 2.992196,3.604974 2.99208,3.604985 0,1.2e-5 0.945833,2.761326 2.812004,3.316586 1.865825,0.55526 3.3242,0.803237 11.463737,-1.658293 8.262856,-2.498675 6.229645,-5.080629 7.462377,-5.948225 1.704897,-1.650587 5.455687,-2.377179 6.921567,-4.181782 -0.2035,-1.373794 -0.94941,-3.724475 -1.18959,-4.614381 0,0.0046 -0.0323,0.03265 -0.0358,0.03599 -0.47817,0.250076 -5.426748,3.217781 -5.912181,3.424736 -1.314752,-2.744588 -3.233873,-2.85005 -11.89645,-1.045446 -8.391828,1.748204 -10.443728,4.378955 -10.562548,4.542281 0,0 -0.69781,0 -1.045504,0 -0.371688,0 -0.469052,0 -1.117487,0 -0.704847,0 -0.79402,0 -1.189703,0 -0.347694,0 -1.045503,0 -1.045503,0 -0.118821,-0.163326 -2.170721,-2.794077 -10.562549,-4.542281 -8.662577,-1.804604 -10.581698,-1.699142 -11.89645,1.045446 -0.485433,-0.206955 -5.43401,-3.17466 -5.912176,-3.424736 0,-0.0035 -0.0323,-0.03172 -0.03576,-0.03599 z"/><path id="path4632" d="m 42.494377,52.967755 c -0.240179,0.889907 -0.986093,3.240588 -1.189587,4.614381 1.465873,1.804604 5.216672,2.531196 6.921571,4.181783 0.01154,0.0069 0.02653,0.02907 0.03576,0.03599 0.06229,0.05041 0.134394,0.120101 0.180307,0.180249 0.742339,1.036644 -0.371227,3.428462 7.246078,5.731926 8.139537,2.46153 9.598027,2.213553 11.463737,1.658293 1.866171,-0.55526 2.812003,-3.316574 2.812003,-3.316586 -1.15e-4,-1.1e-5 0.632632,-3.336474 2.99208,-3.604985 0,0.0012 0.0323,-0.0012 0.03576,0 0.01154,-9.8e-4 0.02653,8.77e-4 0.03576,0 0,2.66e-4 0.02769,9.3e-5 0.03576,0 0.04845,0.0023 0.0969,-0.0046 0.144199,0 0,-0.0012 0.03115,0.0012 0.03576,0 2.359449,0.268511 2.992196,3.604974 2.99208,3.604985 0,1.2e-5 0.945833,2.761326 2.812004,3.316586 1.865825,0.55526 3.3242,0.803237 11.463737,-1.658293 8.262856,-2.498675 6.229645,-5.080629 7.462377,-5.948225 1.704897,-1.650587 5.455687,-2.377179 6.921567,-4.181782 -0.2035,-1.373794 -0.94941,-3.724475 -1.18959,-4.614381 0,0.0046 -0.0323,0.03265 -0.0358,0.03599 -0.47817,0.250076 -5.426748,3.217781 -5.912181,3.424736 -1.314752,-2.744588 -3.233873,-2.85005 -11.89645,-1.045446 -8.391828,1.748204 -10.443728,4.378955 -10.562548,4.542281 0,0 -0.69781,0 -1.045504,0 -0.371688,0 -0.469052,0 -1.117487,0 -0.704847,0 -0.79402,0 -1.189703,0 -0.347694,0 -1.045503,0 -1.045503,0 -0.118821,-0.163326 -2.170721,-2.794077 -10.562549,-4.542281 -8.662577,-1.804604 -10.581698,-1.699142 -11.89645,1.045446 -0.485433,-0.206955 -5.43401,-3.17466 -5.912176,-3.424736 0,-0.0035 -0.0323,-0.03172 -0.03576,-0.03599 z" style="fill:none;stroke:url(#radialGradient7843);stroke-width:1;stroke-linecap:butt;stroke-linejoin:miter;stroke-miterlimit:4;stroke-dasharray:none;stroke-opacity:1"/><path style="fill:none;stroke:url(#radialGradient7845);stroke-width:1;stroke-linecap:butt;stroke-linejoin:miter;stroke-miterlimit:4;stroke-dasharray:none;stroke-opacity:1" id="path4636" d="m 42.494377,53.092755 c -0.240179,0.889907 -0.986093,3.240588 -1.189587,4.614381 1.465873,1.804604 5.216672,2.531196 6.921571,4.181783 0.01154,0.0069 0.02653,0.02907 0.03576,0.03599 0.06229,0.05041 0.134394,0.120101 0.180307,0.180249 0.742339,1.036644 -0.371227,3.428462 7.246078,5.731926 8.139537,2.46153 9.598027,2.213553 11.463737,1.658293 1.866171,-0.55526 2.812003,-3.316574 2.812003,-3.316586 -1.15e-4,-1.1e-5 0.632632,-3.336474 2.99208,-3.604985 0,0.0012 0.0323,-0.0012 0.03576,0 0.01154,-9.8e-4 0.02653,8.77e-4 0.03576,0 0,2.66e-4 0.02769,9.3e-5 0.03576,0 0.04845,0.0023 0.0969,-0.0046 0.144199,0 0,-0.0012 0.03115,0.0012 0.03576,0 2.359449,0.268511 2.992196,3.604974 2.99208,3.604985 0,1.2e-5 0.945833,2.761326 2.812004,3.316586 1.865825,0.55526 3.3242,0.803237 11.463737,-1.658293 8.262856,-2.498675 6.229645,-5.080629 7.462377,-5.948225 1.704897,-1.650587 5.455687,-2.377179 6.921567,-4.181782 -0.2035,-1.373794 -0.94941,-3.724475 -1.18959,-4.614381 0,0.0046 -0.0323,0.03265 -0.0358,0.03599 -0.47817,0.250076 -5.426748,3.217781 -5.912181,3.424736 -1.314752,-2.744588 -3.233873,-2.85005 -11.89645,-1.045446 -8.391828,1.748204 -10.443728,4.378955 -10.562548,4.542281 0,0 -0.69781,0 -1.045504,0 -0.371688,0 -0.469052,0 -1.117487,0 -0.704847,0 -0.79402,0 -1.189703,0 -0.347694,0 -1.045503,0 -1.045503,0 -0.118821,-0.163326 -2.170721,-2.794077 -10.562549,-4.542281 -8.662577,-1.804604 -10.581698,-1.699142 -11.89645,1.045446 -0.485433,-0.206955 -5.43401,-3.17466 -5.912176,-3.424736 0,-0.0035 -0.0323,-0.03172 -0.03576,-0.03599 z"/><path id="path4648" d="m 103.70574,52.967755 c 0.24018,0.889907 0.9861,3.240588 1.18959,4.614381 -1.46587,1.804604 -5.216672,2.531196 -6.921571,4.181783 -0.01154,0.0069 -0.02653,0.02907 -0.03576,0.03599 -0.06229,0.05041 -0.134394,0.120101 -0.180307,0.180249 -0.742339,1.036644 0.371227,3.428462 -7.246078,5.731926 -8.139537,2.46153 -9.598027,2.213553 -11.463737,1.658293 -1.866171,-0.55526 -2.812003,-3.316574 -2.812003,-3.316586 1.15e-4,-1.1e-5 -0.632632,-3.336474 -2.99208,-3.604985 0,0.0012 -0.0323,-0.0012 -0.03576,0 -0.01154,-9.8e-4 -0.02653,8.77e-4 -0.03576,0 0,2.66e-4 -0.02769,9.3e-5 -0.03576,0 -0.04845,0.0023 -0.0969,-0.0046 -0.144199,0 0,-0.0012 -0.03115,0.0012 -0.03576,0 -2.359449,0.268511 -2.992196,3.604974 -2.99208,3.604985 0,1.2e-5 -0.945833,2.761326 -2.812004,3.316586 -1.865825,0.55526 -3.3242,0.803237 -11.463737,-1.658293 -8.262856,-2.498675 -6.229645,-5.080629 -7.462377,-5.948225 -1.704897,-1.650587 -5.455687,-2.377179 -6.921567,-4.181782 0.2035,-1.373794 0.94941,-3.724475 1.18959,-4.614381 0,0.0046 0.0323,0.03265 0.0358,0.03599 0.47817,0.250076 5.426748,3.217781 5.912181,3.424736 1.314752,-2.744588 3.233873,-2.85005 11.89645,-1.045446 8.391828,1.748204 10.443728,4.378955 10.562548,4.542281 0,0 0.69781,0 1.045504,0 0.371688,0 0.469052,0 1.117487,0 0.704847,0 0.79402,0 1.189703,0 0.347694,0 1.045503,0 1.045503,0 0.118821,-0.163326 2.170721,-2.794077 10.562549,-4.542281 8.662577,-1.804604 10.581698,-1.699142 11.89645,1.045446 0.485433,-0.206955 5.434015,-3.17466 5.912175,-3.424736 0,-0.0035 0.0323,-0.03172 0.0358,-0.03599 z" style="fill:none;stroke:url(#radialGradient7847);stroke-width:1;stroke-linecap:butt;stroke-linejoin:miter;stroke-miterlimit:4;stroke-dasharray:none;stroke-opacity:1"/><g id="g4800" transform="matrix(-1,0,0,1,146.13635,0)"><path id="path4786" d="m 119.375,54.58966 1.17748,-4.39443" transform="translate(-77.958063,2.9122872)" style="fill:none;stroke:url(#radialGradient7849);stroke-width:1px;stroke-linecap:butt;stroke-linejoin:miter;stroke-opacity:1"/></g><g id="g4805" transform="translate(-4e-6)"><path style="fill:none;stroke:url(#radialGradient7851);stroke-width:1px;stroke-linecap:butt;stroke-linejoin:miter;stroke-opacity:1" id="path4807" d="m 119.375,54.58966 1.17748,-4.39443" transform="translate(-77.958063,2.9122872)"/></g></g><path id="path5048" d="m 59.07382,91.305865 c -2.861818,1.569225 -5.494163,2.102667 -5.050398,5.662477 0.0014,0.01188 0.003,0.02377 0.0045,0.03565 0.0015,0.01189 0.0031,0.02377 0.0046,0.03565 0.89608,6.934488 6.389041,13.795008 11.329356,14.259418 5.308385,0.499 12.728967,-9.13259 12.46896,-15.721654 -0.106644,-2.702661 -2.714956,-2.944825 -5.53366,-4.408833 -5.108463,-5.184811 -8.75555,-4.866463 -13.223361,0.137286 z" style="color:#000;display:inline;overflow:visible;visibility:visible;fill:none;stroke:url(#radialGradient7853);stroke-width:1.91633;stroke-linecap:round;stroke-linejoin:round;stroke-miterlimit:4;stroke-dasharray:none;stroke-dashoffset:0;stroke-opacity:1;marker:none"/><path style="color:#000;display:inline;overflow:visible;visibility:visible;fill:#f09c42;fill-opacity:1;fill-rule:nonzero;stroke:url(#radialGradient7855);stroke-width:.843305;stroke-linecap:round;stroke-linejoin:round;stroke-miterlimit:4;stroke-dasharray:none;stroke-dashoffset:0;stroke-opacity:1;marker:none" id="path5050" d="m 59.07382,91.305865 c -2.861818,1.569225 -5.494163,2.102667 -5.050398,5.662477 0.0014,0.01188 0.003,0.02377 0.0045,0.03565 0.0015,0.01189 0.0031,0.02377 0.0046,0.03565 0.89608,6.934488 6.389041,13.795008 11.329356,14.259418 5.308385,0.499 12.728967,-9.13259 12.46896,-15.721654 -0.106644,-2.702661 -2.714956,-2.944825 -5.53366,-4.408833 -5.108463,-5.184811 -8.75555,-4.866463 -13.223361,0.137286 z"/><path style="color:#000;display:inline;overflow:visible;visibility:visible;fill:url(#radialGradient7857);fill-opacity:1;fill-rule:nonzero;stroke:none;stroke-width:1;marker:none" id="path5052" d="m 64.861328,72.992188 c -2.721999,0.203331 -4.41101,0.884891 -4.820312,1.210937 -0.409303,0.326046 -0.478495,-0.02496 -0.199219,1.554687 0.375925,2.12724 2.044282,4.911677 4.414062,7.021485 2.369781,2.109807 5.345158,3.458286 7.50586,3.601562 1.729095,0.114651 5.587581,-1.44614 8.482422,-4.050781 2.89484,-2.60464 4.43013,-6.115312 4.384765,-6.925781 -0.0087,-0.155016 0.06979,-0.07801 -0.263672,-0.386719 -0.333457,-0.308713 -1.153248,-0.810574 -2.367187,-1.201172 -2.427879,-0.781195 -6.267433,-1.101913 -9.939453,-0.767578 a 4.4418556,4.4418556 0 0 1 -0.685547,0.0078 c -2.510115,-0.160863 -4.723617,-0.198024 -6.511719,-0.06445 z" transform="matrix(1,0,0,-1,-6.5015403,180.2988)"/><path id="path5054" d="m 64.861328,72.992188 c -2.721999,0.203331 -4.41101,0.884891 -4.820312,1.210937 -0.409303,0.326046 -0.478495,-0.02496 -0.199219,1.554687 0.375925,2.12724 2.044282,4.911677 4.414062,7.021485 2.369781,2.109807 5.345158,3.458286 7.50586,3.601562 1.729095,0.114651 5.587581,-1.44614 8.482422,-4.050781 2.89484,-2.60464 4.43013,-6.115312 4.384765,-6.925781 -0.0087,-0.155016 0.06979,-0.07801 -0.263672,-0.386719 -0.333457,-0.308713 -1.153248,-0.810574 -2.367187,-1.201172 -2.427879,-0.781195 -6.267433,-1.101913 -9.939453,-0.767578 a 4.4418556,4.4418556 0 0 1 -0.685547,0.0078 c -2.510115,-0.160863 -4.723617,-0.198024 -6.511719,-0.06445 z" transform="matrix(0.73920596,0,0,-1,12.432123,180.2988)" style="color:#000;display:inline;overflow:visible;visibility:visible;fill:url(#radialGradient7859);fill-opacity:1;fill-rule:nonzero;stroke:none;stroke-width:1;marker:none"/><path style="color:#000;display:inline;overflow:visible;visibility:visible;fill:none;stroke:url(#radialGradient7861);stroke-width:2;stroke-linecap:round;stroke-linejoin:round;stroke-miterlimit:4;stroke-dasharray:none;stroke-dashoffset:0;stroke-opacity:1;marker:none" id="path5056" d="m 72.669922,66.349609 c -2.008796,0.05425 -4.022663,1.337594 -6.314453,3.904297 a 0.47573078,0.47573078 0 0 1 -0.126953,0.101563 c -1.527703,0.837687 -2.950997,1.392331 -3.865235,2.126953 -0.90957,0.730872 -1.380617,1.557672 -1.171875,3.279297 a 0.47573078,0.47573078 0 0 1 0.03125,0.115234 c 0.454356,3.516119 2.0836,7.047033 4.222656,9.734375 2.139057,2.687342 4.784865,4.505049 7.16211,4.728516 2.465685,0.231781 5.721539,-2.010791 8.259766,-5.25 2.538226,-3.239209 4.349003,-7.412652 4.220703,-10.664063 -0.04971,-1.259625 -0.591785,-1.824756 -1.576172,-2.388672 -0.984387,-0.563916 -2.403546,-1.016158 -3.917969,-1.802734 a 0.47573078,0.47573078 0 0 1 -0.119141,-0.08789 c -2.623295,-2.662501 -4.798568,-3.851055 -6.804687,-3.796875 z" transform="translate(-7.0015403,20)"/><path id="path5233" d="m 31.089768,175.91909 c 0,0 12.456122,12.45612 32.81709,13.17474 20.360968,0.71862 35.452027,-14.37245 35.452027,-14.37245" style="fill:none;stroke:#000;stroke-width:.958163px;stroke-linecap:butt;stroke-linejoin:miter;stroke-opacity:1"/><path id="path15997" d="m 6.6403837,185.8202 c -2.770776,1.24755 -5.77107611,2.63291 -7.43857913,5.2987 -0.50445277,0.93913 0.35488651,2.24714 1.43196352,2.04257 4.01702461,0.54502 8.08668071,-0.0152 12.11142691,0.42628 5.280833,0.28777 10.569571,0.60376 15.858846,0.34227 3.038434,-0.0822 6.074933,-0.23918 9.114442,-0.14788 3.501843,-0.0442 7.025078,-0.12266 10.493215,-0.62683 1.788866,-0.35022 3.596758,-1.11342 4.795698,-2.53073 0.834,-1.48464 -0.3656,-3.30792 -1.886193,-3.69684 -3.466582,-1.71571 -7.380693,-1.9803 -11.096636,-2.84465 -4.256892,-0.85031 -8.595478,-1.16941 -12.931578,-1.19421 -5.187671,-0.10341 -10.389869,0.35283 -15.455276,1.49644 -1.6828741,0.40669 -3.4069643,0.73065 -4.9973243,1.43489 z" style="color:#000;display:inline;overflow:visible;visibility:visible;fill:#f09c42;fill-opacity:1;fill-rule:nonzero;stroke:url(#radialGradient7863);stroke-width:1.91633;stroke-linecap:round;stroke-linejoin:round;stroke-miterlimit:4;stroke-dasharray:none;stroke-dashoffset:0;stroke-opacity:1;marker:none"/><path style="color:#000;display:inline;overflow:visible;visibility:visible;fill:#f09c42;fill-opacity:1;fill-rule:nonzero;stroke:url(#radialGradient7865);stroke-width:1.91633;stroke-linecap:round;stroke-linejoin:round;stroke-miterlimit:4;stroke-dasharray:none;stroke-dashoffset:0;stroke-opacity:1;marker:none" id="path5118" d="m 122.34727,185.8202 c 2.77077,1.24755 5.77108,2.63291 7.43858,5.2987 0.50445,0.93913 -0.35488,2.24714 -1.43196,2.04257 -4.01703,0.54502 -8.08668,-0.0152 -12.11143,0.42628 -5.28083,0.28777 -10.56957,0.60376 -15.85884,0.34227 -3.03842,-0.0822 -6.07492,-0.23918 -9.114425,-0.14788 -3.501847,-0.0442 -7.025081,-0.12266 -10.493219,-0.62683 -1.788862,-0.35022 -3.596754,-1.11342 -4.795694,-2.53073 -0.834004,-1.48464 0.365597,-3.30792 1.886193,-3.69684 3.466577,-1.71571 7.380693,-1.9803 11.096631,-2.84465 4.256904,-0.85031 8.595484,-1.16941 12.931564,-1.19421 5.18767,-0.10341 10.38987,0.35283 15.45528,1.49644 1.68287,0.40669 3.40696,0.73065 4.99732,1.43489 z"/><path style="color:#000;display:inline;overflow:visible;visibility:visible;fill:url(#radialGradient7867);fill-opacity:1;fill-rule:nonzero;stroke:none;stroke-width:2;marker:none" id="path5297" d="m 110.70898,169.22656 c -4.35624,0.0249 -8.65144,0.35164 -12.796871,1.17969 l 0.113282,-0.0254 c -3.482525,0.81006 -6.450253,1.28683 -8.982422,2.13476 0.08972,0.0221 0.155715,0.0629 0.248047,0.082 3.294197,0.47069 6.756247,0.56795 10.349609,0.61328 l -0.158203,0.002 c 3.375058,-0.10138 6.632778,0.0702 9.742188,0.1543 a 3.6962328,3.6962328 0 0 1 0.082,0.004 c 5.24473,0.25929 10.61571,-0.0716 16.14844,-0.37304 l -0.20117,0.0156 c 2.43713,-0.26736 4.71774,-0.25397 6.83984,-0.23437 -0.53576,-0.26602 -0.96834,-0.54063 -1.55859,-0.80664 l -0.006,-0.002 c -1.12987,-0.49938 -2.69079,-0.82624 -4.54492,-1.27343 -4.95894,-1.11831 -10.0792,-1.57324 -15.22266,-1.47071 a 3.6962328,3.6962328 0 0 1 -0.0527,0 z" transform="matrix(-1,0,0,1,134.15469,18)"/><path id="path5309" d="m 110.70898,169.22656 c -4.35624,0.0249 -8.65144,0.35164 -12.796871,1.17969 l 0.113282,-0.0254 c -3.482525,0.81006 -6.450253,1.28683 -8.982422,2.13476 0.08972,0.0221 0.155715,0.0629 0.248047,0.082 3.294197,0.47069 6.756247,0.56795 10.349609,0.61328 l -0.158203,0.002 c 3.375058,-0.10138 6.632778,0.0702 9.742188,0.1543 a 3.6962328,3.6962328 0 0 1 0.082,0.004 c 5.24473,0.25929 10.61571,-0.0716 16.14844,-0.37304 l -0.20117,0.0156 c 2.43713,-0.26736 4.71774,-0.25397 6.83984,-0.23437 -0.53576,-0.26602 -0.96834,-0.54063 -1.55859,-0.80664 l -0.006,-0.002 c -1.12987,-0.49938 -2.69079,-0.82624 -4.54492,-1.27343 -4.95894,-1.11831 -10.0792,-1.57324 -15.22266,-1.47071 a 3.6962328,3.6962328 0 0 1 -0.0527,0 z" transform="translate(-7.0015403,18)" style="color:#000;display:inline;overflow:visible;visibility:visible;fill:url(#radialGradient7869);fill-opacity:1;fill-rule:nonzero;stroke:none;stroke-width:2;marker:none"/><g id="g5379" transform="matrix(0.95816321,0,0,0.95816321,-4.1629129,24.287892)"><path id="path5363" d="m 33.941587,175.90991 c 0,0 0.88388,-0.95153 6.36396,-1.12453 5.48008,-0.17301 6.36396,0.77852 6.36396,0.77852" transform="matrix(-1,0,0,1,140.61109,0)" style="fill:none;stroke:url(#radialGradient7871);stroke-width:2.09857;stroke-linecap:butt;stroke-linejoin:miter;stroke-miterlimit:4;stroke-dasharray:none;stroke-opacity:1"/><path style="fill:none;stroke:url(#radialGradient7873);stroke-width:2.09857;stroke-linecap:butt;stroke-linejoin:miter;stroke-miterlimit:4;stroke-dasharray:none;stroke-opacity:1" id="path5369" d="m 33.941587,175.90991 c 0,0 0.88388,-0.95153 6.36396,-1.12453 5.48008,-0.17301 6.36396,0.77852 6.36396,0.77852" transform="matrix(-1,0,0,1,152.66651,0.47487377)"/><path id="path5375" d="m 117.997,176.38478 c 0,0 0.88388,-0.95153 6.36396,-1.12453 5.48008,-0.17301 6.36396,0.77852 6.36396,0.77852" transform="matrix(0.88208672,0,0,0.88208672,13.691537,20.441155)" style="fill:none;stroke:url(#radialGradient7875);stroke-width:2.09857;stroke-linecap:butt;stroke-linejoin:miter;stroke-miterlimit:4;stroke-dasharray:none;stroke-opacity:1"/></g><g id="g5412" transform="matrix(-0.95816321,0,0,0.95816321,132.588,24.287892)"><path style="fill:none;stroke:url(#radialGradient7877);stroke-width:2.09857;stroke-linecap:butt;stroke-linejoin:miter;stroke-miterlimit:4;stroke-dasharray:none;stroke-opacity:1" id="path5414" d="m 33.941587,175.90991 c 0,0 0.88388,-0.95153 6.36396,-1.12453 5.48008,-0.17301 6.36396,0.77852 6.36396,0.77852" transform="matrix(-1,0,0,1,140.61109,0)"/><path id="path5416" d="m 33.941587,175.90991 c 0,0 0.88388,-0.95153 6.36396,-1.12453 5.48008,-0.17301 6.36396,0.77852 6.36396,0.77852" transform="matrix(-1,0,0,1,152.66651,0.47487377)" style="fill:none;stroke:url(#radialGradient7879);stroke-width:2.09857;stroke-linecap:butt;stroke-linejoin:miter;stroke-miterlimit:4;stroke-dasharray:none;stroke-opacity:1"/><path style="fill:none;stroke:url(#radialGradient7881);stroke-width:2.09857;stroke-linecap:butt;stroke-linejoin:miter;stroke-miterlimit:4;stroke-dasharray:none;stroke-opacity:1" id="path5418" d="m 117.997,176.38478 c 0,0 0.88388,-0.95153 6.36396,-1.12453 5.48008,-0.17301 6.36396,0.77852 6.36396,0.77852" transform="matrix(0.88208672,0,0,0.88208672,13.691537,20.441155)"/></g></g><g style="font-style:normal;font-variant:normal;font-weight:700;font-stretch:normal;font-size:1.51053px;line-height:125%;font-family:Syncopate;-inkscape-font-specification:'Syncopate Bold';text-align:start;letter-spacing:0;word-spacing:0;writing-mode:lr-tb;text-anchor:start;fill:#222d36;fill-opacity:1;stroke:#000;stroke-opacity:.477229" id="text7354" aria-label="SELinux"><path id="path1077" d="m -9.2148793,222.24607 q 10.4196719,0.57042 14.1083879,0.57042 0.874644,0 1.369008,-0.49436 0.532392,-0.53239 0.532392,-1.40704 v -3.42252 h -8.74644 q -3.99294,0 -5.818284,-1.78731 -1.7873159,-1.82535 -1.7873159,-5.81829 v -1.14084 q 0,-3.99294 1.7873159,-5.78025 1.825344,-1.82535 5.818284,-1.82535 H 11.396297 v 5.32392 H -0.43041138 q -2.28168002,0 -2.28168002,2.28168 v 0.76056 q 0,2.28168 2.28168002,2.28168 H 6.4146286 q 3.7267444,0 5.4760324,1.74929 1.749288,1.74929 1.749288,5.47603 v 1.9014 q 0,3.72675 -1.749288,5.47603 -1.749288,1.74929 -5.4760324,1.74929 -1.939428,0 -4.107024,-0.0761 l -3.498576,-0.15212 q -3.878856,-0.19014 -8.0239079,-0.53239 z" style="font-style:normal;font-variant:normal;font-weight:400;font-stretch:normal;font-size:38.028px;line-height:125%;font-family:'Russo One';-inkscape-font-specification:'Russo One';text-align:start;letter-spacing:-.477868;writing-mode:lr-tb;text-anchor:start;fill:#222d36;fill-opacity:1;stroke:#000;stroke-opacity:.477229"/><path id="path1079" d="m 37.690073,227.76013 h -21.10554 v -26.6196 h 21.10554 v 5.32392 h -14.2605 v 5.13378 h 11.21826 v 5.32392 h -11.21826 v 5.51406 h 14.2605 z" style="font-style:normal;font-variant:normal;font-weight:400;font-stretch:normal;font-size:38.028px;line-height:125%;font-family:'Russo One';-inkscape-font-specification:'Russo One';text-align:start;letter-spacing:-.477868;writing-mode:lr-tb;text-anchor:start;fill:#222d36;fill-opacity:1;stroke:#000;stroke-opacity:.477229"/><path id="path1081" d="m 47.099422,222.43621 h 13.88022 v 5.32392 h -20.72526 v -26.6196 h 6.84504 z" style="font-style:normal;font-variant:normal;font-weight:400;font-stretch:normal;font-size:38.028px;line-height:125%;font-family:'Russo One';-inkscape-font-specification:'Russo One';text-align:start;letter-spacing:-.477868;writing-mode:lr-tb;text-anchor:start;fill:#222d36;fill-opacity:1;stroke:#000;stroke-opacity:.477229"/><path id="path1083" d="m 71.149606,208.36585 v 19.39428 h -6.6549 v -14.2605 h -2.8521 v -5.13378 z m -6.6549,-7.6056 h 6.6549 v 5.32392 h -6.6549 z" style="font-style:normal;font-variant:normal;font-weight:400;font-stretch:normal;font-size:38.028px;line-height:125%;font-family:'Russo One';-inkscape-font-specification:'Russo One';text-align:start;letter-spacing:-.477868;writing-mode:lr-tb;text-anchor:start;fill:#222d36;fill-opacity:1;stroke:#000;stroke-opacity:.477229"/><path id="path1085" d="m 85.692784,212.73907 q -2.015484,0 -4.56336,0.76056 v 14.2605 h -6.6549 v -20.15484 h 5.89434 l 0.38028,1.9014 q 1.787316,-1.17887 3.650688,-1.71126 1.9014,-0.57042 3.194352,-0.57042 h 1.71126 q 2.585904,0 4.145052,1.55915 1.559148,1.55915 1.559148,4.14505 v 14.83092 h -6.6549 v -13.69008 q 0,-0.57042 -0.38028,-0.9507 -0.38028,-0.38028 -0.9507,-0.38028 z" style="font-style:normal;font-variant:normal;font-weight:400;font-stretch:normal;font-size:38.028px;line-height:125%;font-family:'Russo One';-inkscape-font-specification:'Russo One';text-align:start;letter-spacing:-.477868;writing-mode:lr-tb;text-anchor:start;fill:#222d36;fill-opacity:1;stroke:#000;stroke-opacity:.477229"/><path id="path1087" d="m 107.27112,222.62635 q 2.01548,0 4.56336,-0.76056 v -14.2605 h 6.6549 v 20.15484 h -5.89434 l -0.38028,-1.9014 q -1.78732,1.17887 -3.68872,1.74929 -1.86337,0.53239 -3.15632,0.53239 h -1.71126 q -2.5859,0 -4.145052,-1.55915 -1.559148,-1.55914 -1.559148,-4.14505 v -14.83092 h 6.6549 v 13.69008 q 0,0.57042 0.38028,0.9507 0.38028,0.38028 0.9507,0.38028 z" style="font-style:normal;font-variant:normal;font-weight:400;font-stretch:normal;font-size:38.028px;line-height:125%;font-family:'Russo One';-inkscape-font-specification:'Russo One';text-align:start;letter-spacing:-.477868;writing-mode:lr-tb;text-anchor:start;fill:#222d36;fill-opacity:1;stroke:#000;stroke-opacity:.477229"/><path id="path1089" d="m 133.60296,207.60529 h 7.41546 l -6.08448,10.07742 6.27462,10.07742 h -7.41546 l -3.42252,-6.08448 -3.42252,6.08448 h -7.41546 l 6.27462,-10.07742 -6.08448,-10.07742 h 7.41546 l 3.23238,6.08448 z" style="font-style:normal;font-variant:normal;font-weight:400;font-stretch:normal;font-size:38.028px;line-height:125%;font-family:'Russo One';-inkscape-font-specification:'Russo One';text-align:start;letter-spacing:-.477868;writing-mode:lr-tb;text-anchor:start;fill:#222d36;fill-opacity:1;stroke:#000;stroke-opacity:.477229"/></g></g></g></svg>